<?xml version="1.0" standalone="no"?>
<!DOCTYPE svg PUBLIC "-//W3C//DTD SVG 20010904//EN"
 "http://www.w3.org/TR/2001/REC-SVG-20010904/DTD/svg10.dtd">
<svg version="1.0" xmlns="http://www.w3.org/2000/svg"
 width="260.000000pt" height="260.000000pt" viewBox="0 0 260.000000 260.000000"
 preserveAspectRatio="xMidYMid meet">
<metadata>
Created by potrace 1.11, written by Peter Selinger 2001-2013
</metadata>
<g transform="translate(0.000000,260.000000) scale(0.100000,-0.100000)"
fill="#000000" stroke="none">
<path d="M640 1370 l0 -1070 -125 0 -125 0 0 -80 0 -80 325 0 325 0 0 80 0 80
-125 0 -125 0 0 824 0 824 176 176 176 176 349 0 349 0 0 -149 0 -149 -28 -10
c-16 -5 -45 -24 -64 -41 -94 -82 -64 -240 55 -288 38 -16 47 -37 24 -57 -13
-11 -121 -265 -115 -271 2 -1 12 -5 24 -9 18 -5 25 5 60 91 l39 98 3 -134 c1
-75 -1 -137 -7 -140 -5 -3 -34 -67 -64 -141 -54 -131 -55 -135 -35 -143 25 -9
29 -6 53 53 21 54 51 125 68 163 12 28 14 26 66 -101 52 -125 55 -130 77 -120
24 11 24 14 -13 98 -8 19 -19 44 -23 55 -4 11 -22 50 -39 86 -30 64 -31 71
-31 200 l1 134 40 -95 c22 -52 43 -98 47 -102 5 -5 16 -2 25 5 16 11 13 23
-39 149 -32 75 -61 135 -66 132 -4 -3 -8 4 -8 15 0 13 10 23 33 30 42 14 91
65 107 112 29 82 -26 197 -104 217 l-31 8 -3 152 -3 152 26 0 c24 0 25 2 25
70 l0 70 -650 0 -650 0 0 -1070z m280 925 c0 -5 -121 -125 -126 -125 -2 0 -4
29 -4 65 l0 65 65 0 c36 0 65 -2 65 -5z"/>
</g>
</svg>
